<svg width="1024" height="500" viewBox="0 0 1024 500" fill="none" xmlns="http://www.w3.org/2000/svg">
<rect width="1024" height="500" fill="#FF6108"/>
<path d="M154.148 356.071H159.006L163.559 375.85H163.653L168.907 356.071H173.157L178.411 375.85H178.504L183.058 356.071H187.915L180.91 382.271H176.379L171.102 363.45H170.985L165.708 382.271H161.177L154.148 356.071Z" fill="white"/>
<path d="M201.786 356.071H218.739V360.017H206.456V367.093H218.062V370.876H206.456V378.348H218.739V382.295H201.786V356.094V356.071Z" fill="white"/>
<path d="M233.591 356.071H238.285V382.271H233.591V356.071ZM235.926 378.652H243.492C245.22 378.652 246.528 378.302 247.415 377.601C248.302 376.901 248.769 375.896 248.769 374.565V374.519C248.769 373.631 248.559 372.884 248.139 372.277C247.719 371.67 247.111 371.226 246.294 370.923C245.477 370.619 244.473 370.479 243.282 370.479H235.903V367.093H242.535C244.169 367.093 245.43 366.766 246.318 366.112C247.205 365.458 247.649 364.524 247.649 363.31V363.263C247.649 362.119 247.275 361.255 246.504 360.648C245.734 360.041 244.66 359.737 243.282 359.737H235.926V356.094H244.449C246.037 356.094 247.415 356.374 248.583 356.911C249.75 357.449 250.661 358.196 251.315 359.177C251.969 360.157 252.272 361.302 252.272 362.633V362.679C252.272 363.613 252.062 364.477 251.618 365.295C251.175 366.112 250.591 366.789 249.867 367.326C249.143 367.863 248.279 368.214 247.345 368.354V368.471C248.559 368.587 249.657 368.914 250.568 369.498C251.478 370.082 252.226 370.806 252.739 371.74C253.253 372.674 253.51 373.701 253.51 374.846V374.892C253.51 376.434 253.136 377.741 252.412 378.862C251.688 379.983 250.661 380.824 249.307 381.431C247.952 382.038 246.364 382.342 244.496 382.342H235.856V378.699L235.926 378.652Z" fill="white"/>
<path d="M285.945 356.071H290.639V382.271H285.945V356.071Z" fill="white"/>
<path d="M306.028 356.071H310.232L325.55 378.115L321.113 374.449H323.098V356.071H327.745V382.271H323.565L308.223 360.181L312.66 363.824H310.652V382.271H306.005V356.071H306.028Z" fill="white"/>
<path d="M349.603 360.017H341.756V356.071H362.096V360.017H354.273V382.271H349.603V360.017Z" fill="white"/>
<path d="M376.06 356.071H393.013V360.017H380.73V367.093H392.336V370.876H380.73V378.348H393.013V382.295H376.06V356.094V356.071Z" fill="white"/>
<path d="M407.888 356.071H412.581V378.325H424.467V382.271H407.911V356.071H407.888Z" fill="white"/>
<path d="M438.619 356.071H443.313V378.325H455.199V382.271H438.642V356.071H438.619Z" fill="white"/>
<path d="M469.326 356.071H474.02V382.271H469.326V356.071Z" fill="white"/>
<path d="M494.337 381.081C492.468 379.983 491.044 378.419 490.04 376.364C489.036 374.309 488.522 371.903 488.522 369.078C488.522 366.276 489.036 363.87 490.04 361.886C491.044 359.901 492.468 358.336 494.313 357.262C496.158 356.188 498.33 355.627 500.852 355.627C502.93 355.627 504.728 356.001 506.293 356.725C507.857 357.449 509.118 358.453 510.122 359.714C511.126 360.975 511.757 362.423 512.084 364.034L512.154 364.338H507.414L507.343 364.127C506.853 362.726 506.036 361.629 504.938 360.835C503.841 360.041 502.463 359.644 500.852 359.644C499.24 359.644 497.933 360.017 496.812 360.741C495.691 361.465 494.827 362.539 494.22 363.941C493.613 365.342 493.309 367.023 493.309 368.985C493.309 370.993 493.613 372.721 494.243 374.169C494.874 375.616 495.761 376.714 496.905 377.485C498.049 378.255 499.427 378.629 500.992 378.629C502.323 378.629 503.467 378.372 504.495 377.858C505.522 377.344 506.293 376.644 506.876 375.71C507.46 374.776 507.74 373.725 507.764 372.487V372.09H501.459V368.447H512.364V371.273C512.364 373.655 511.92 375.686 511.01 377.368C510.099 379.049 508.791 380.357 507.087 381.291C505.382 382.225 503.327 382.669 500.945 382.669C498.4 382.669 496.205 382.108 494.337 381.011V381.081Z" fill="white"/>
<path d="M526.958 356.071H543.912V360.017H531.629V367.093H543.234V370.876H531.629V378.348H543.912V382.295H526.958V356.094V356.071Z" fill="white"/>
<path d="M558.764 356.071H562.967L578.286 378.115L573.849 374.449H575.834V356.071H580.481V382.271H576.301L560.959 360.181L565.395 363.824H563.387V382.271H558.74V356.071H558.764Z" fill="white"/>
<path d="M600.797 381.081C598.952 379.983 597.527 378.419 596.523 376.387C595.519 374.355 595.029 371.95 595.029 369.171C595.029 366.369 595.543 363.964 596.547 361.932C597.551 359.901 598.975 358.359 600.82 357.262C602.665 356.164 604.837 355.627 607.335 355.627C609.343 355.627 611.142 356.024 612.729 356.795C614.317 357.566 615.625 358.64 616.629 360.017C617.633 361.395 618.24 362.96 618.474 364.734V364.921H613.897L613.804 364.571C613.547 363.567 613.126 362.703 612.543 361.979C611.959 361.255 611.235 360.695 610.348 360.298C609.46 359.901 608.456 359.691 607.312 359.691C605.794 359.691 604.463 360.087 603.342 360.858C602.221 361.629 601.334 362.726 600.727 364.127C600.119 365.528 599.793 367.21 599.793 369.171C599.793 371.133 600.096 372.814 600.727 374.239C601.357 375.663 602.221 376.761 603.342 377.555C604.463 378.349 605.794 378.722 607.312 378.722C608.433 378.722 609.413 378.535 610.301 378.138C611.188 377.741 611.912 377.181 612.519 376.434C613.126 375.686 613.57 374.776 613.85 373.702L613.897 373.515H618.497L618.451 373.725C618.24 375.5 617.61 377.088 616.606 378.442C615.602 379.796 614.294 380.871 612.706 381.641C611.118 382.412 609.297 382.785 607.288 382.785C604.79 382.785 602.595 382.225 600.75 381.127L600.797 381.081Z" fill="white"/>
<path d="M632.835 356.071H649.789V360.017H637.506V367.093H649.112V370.876H637.506V378.348H649.789V382.295H632.835V356.094V356.071Z" fill="white"/>
<path d="M584.497 190.11C568.758 190.11 554.327 195.738 543.071 205.079V118H519.509V255.098C519.509 290.92 548.652 320.086 584.497 320.086C620.342 320.086 649.485 290.943 649.485 255.098C649.485 219.253 620.342 190.11 584.497 190.11ZM584.497 296.524C561.659 296.524 543.071 277.936 543.071 255.098C543.071 232.26 561.659 213.672 584.497 213.672C607.335 213.672 625.923 232.26 625.923 255.098C625.923 277.936 607.335 296.524 584.497 296.524Z" fill="white"/>
<path d="M584.498 239.546C575.928 239.546 568.969 246.504 568.969 255.075C568.969 263.645 575.928 270.603 584.498 270.603C593.068 270.603 600.027 263.645 600.027 255.075C600.027 246.504 593.068 239.546 584.498 239.546Z" fill="white"/>
<path d="M315.696 268.245C315.696 284.358 302.595 297.458 286.483 297.458C271.374 297.458 258.928 285.946 257.433 271.234C257.48 270.254 257.526 269.249 257.526 268.245V190.017H257.293V189.013H233.731V268.269C233.731 269.273 233.754 270.277 233.824 271.258C232.33 285.969 219.86 297.482 204.775 297.482C188.662 297.482 175.562 284.381 175.562 268.269V188.99H152V268.245C152 297.342 175.679 321.02 204.775 321.02C221.238 321.02 235.949 313.431 245.64 301.592C255.331 313.431 270.043 321.02 286.506 321.02C315.602 321.02 339.258 297.342 339.258 268.245V188.99H315.696V268.245Z" fill="white"/>
<path d="M362.539 254.281C362.539 290.149 391.706 319.315 427.574 319.315H492.422V295.753H427.574C404.713 295.753 386.101 277.142 386.101 254.281C386.101 231.419 404.713 212.808 427.574 212.808H492.422V189.246H427.574C391.706 189.246 362.539 218.413 362.539 254.281Z" fill="white"/>
<path d="M439.437 243.072H425.542C419.027 243.072 413.773 248.349 413.773 254.841C413.773 261.333 419.051 266.61 425.542 266.61H492.422V243.049H439.46L439.437 243.072Z" fill="white"/>
<path d="M843.072 159.075H709.733C693.971 159.075 681.198 171.849 681.198 187.611V382.178L711.251 349.485H843.072C858.834 349.485 871.608 336.712 871.608 320.95V187.611C871.608 171.849 858.834 159.075 843.072 159.075ZM776.403 189.946C783.011 189.946 788.359 195.294 788.359 201.903C788.359 208.511 783.011 213.859 776.403 213.859C769.794 213.859 764.446 208.511 764.446 201.903C764.446 195.294 769.794 189.946 776.403 189.946ZM789.176 238.144V270.51C789.176 277.025 783.898 282.279 777.407 282.279C770.915 282.279 765.637 277.002 765.637 270.51V238.144C765.637 231.629 770.915 226.375 777.407 226.375C783.898 226.375 789.176 231.653 789.176 238.144ZM776.403 319.408C740.277 319.408 710.901 290.032 710.901 253.907C710.901 243.515 713.259 233.567 717.93 224.367C719.471 221.308 723.207 220.094 726.266 221.635C729.325 223.176 730.54 226.912 728.999 229.971C725.216 237.421 723.301 245.5 723.301 253.93C723.301 283.213 747.119 307.032 776.403 307.032C805.686 307.032 829.504 283.213 829.504 253.93C829.504 245.01 827.239 236.16 822.966 228.407C821.308 225.418 822.405 221.635 825.418 220C828.407 218.342 832.19 219.44 833.824 222.452C839.102 232.05 841.881 242.932 841.881 253.954C841.881 290.079 812.504 319.455 776.379 319.455L776.403 319.408Z" fill="white"/>
</svg>
