<svg width="25" height="24" viewBox="0 0 25 24" fill="none" xmlns="http://www.w3.org/2000/svg">
<path d="M21.36 8.37L14.43 2.83C13.36 1.97 11.63 1.97 10.57 2.82L3.64001 8.37C2.86001 8.99 2.36001 10.3 2.53001 11.28L3.86001 19.24C4.10001 20.66 5.46001 21.81 6.90001 21.81H18.1C19.53 21.81 20.9 20.65 21.14 19.24L22.47 11.28C22.63 10.3 22.13 8.99 21.36 8.37ZM12.5 15.5C11.12 15.5 10 14.38 10 13C10 11.62 11.12 10.5 12.5 10.5C13.88 10.5 15 11.62 15 13C15 14.38 13.88 15.5 12.5 15.5Z" fill="white"/>
</svg>
